Coordinates
version=1
nRows=21
nColumns=22
inDegrees=yes

Units are S.I. units (second, meters, Newtons, ...)
If the header above contains a line with 'inDegrees', this indicates whether rotational values are in degrees (yes) or radians (no).

endheader
time	pelvis_tilt	pelvis_list	pelvis_rotation	pelvis_tx	pelvis_ty	pelvis_tz	hip_flexion_r	hip_adduction_r	hip_rotation_r	knee_angle_r	ankle_angle_r	subtalar_angle_r	hip_flexion_l	hip_adduction_l	hip_rotation_l	knee_angle_l	ankle_angle_l	subtalar_angle_l	lumbar_extension	lumbar_bending	lumbar_rotation
      1.17000000	     -7.24048479	     -7.09866687	      2.27797297	     -1.02499237	      0.97158454	     -0.00209356	      7.47047713	      5.60470529	     -5.09545377	    -13.68308205	     11.04099731	      2.12515915	      6.49951353	     -6.05733137	      7.21920275	     -9.32715409	     12.55024395	     -2.94728676	      4.75718425	      5.16425094	     -8.77556213
      1.18000000	     -7.25837826	     -7.07614749	      2.40521236	     -1.02420126	      0.97139524	     -0.00340636	      7.53950035	      5.48093918	     -5.20466097	    -13.87200069	     11.16297871	      2.19407972	      6.53145303	     -5.93963304	      7.40214913	     -9.41211478	     12.61950490	     -3.01883852	      4.72029657	      5.13838988	     -8.76514476
      1.19000000	     -7.27318919	     -7.04027919	      2.53547261	     -1.02335992	      0.97119577	     -0.00475349	      7.63537286	      5.33787724	     -5.30793296	    -14.12096016	     11.30306039	      2.27987078	      6.54965236	     -5.80630197	      7.58966836	     -9.48732571	     12.68576566	     -3.10021049	      4.67923214	      5.09865756	     -8.74613766
      1.20000000	     -7.27847068	     -6.98692687	      2.66620734	     -1.02246673	      0.97098765	     -0.00613563	      7.75726020	      5.17188103	     -5.40346108	    -14.44134920	     11.46681363	      2.37517786	      6.54472711	     -5.65295371	      7.77545067	     -9.54974959	     12.75315668	     -3.18540288	      4.62685926	      5.04038064	     -8.71851888
      1.21000000	     -7.27917884	     -6.90974578	      2.79942151	     -1.02151425	      0.97076498	     -0.00754499	      7.91608738	      4.97498273	     -5.49506739	    -14.84470654	     11.65642054	      2.49269313	      6.52230429	     -5.47292951	      7.96558178	     -9.60190017	     12.81466513	     -3.28196127	      4.56837743	      4.95547683	     -8.68498925
      1.22000000	     -7.26308175	     -6.81495346	      2.93269186	     -1.02047714	      0.97053167	     -0.00897180	      8.09995743	      4.75640107	     -5.57685059	    -15.33470644	     11.86817240	      2.60060114	      6.46637178	     -5.27535096	      8.14407875	     -9.64115496	     12.88655531	     -3.37385822	      4.49468589	      4.85089420	     -8.64932868
      1.23000000	     -7.24182146	     -6.68982579	      3.07412114	     -1.01938115	      0.97027364	     -0.01042822	      8.33319660	      4.49921287	     -5.65444258	    -15.93063258	     12.10204272	      2.73357209	      6.39767721	     -5.04238736	      8.33681474	     -9.68057758	     12.94561757	     -3.48312749	      4.41626204	      4.71008035	     -8.61551775
      1.24000000	     -7.24735662	     -6.55063265	      3.21644568	     -1.01825436	      0.96994611	     -0.01190875	      8.66039170	      4.21603041	     -5.72710262	    -16.64612564	     12.33522678	      2.99386859	      6.35164063	     -4.78956640	      8.56298673	     -9.71929638	     12.99429457	     -3.67518995	      4.36657439	      4.55216025	     -8.56481918
      1.25000000	     -7.16755731	     -6.38079714	      3.37912115	     -1.01698198	      0.96966301	     -0.01341166	      8.94403807	      3.90405584	     -5.80617557	    -17.46368365	     12.61592239	      3.06469799	      6.20568527	     -4.50957592	      8.74572755	     -9.75897289	     13.08647523	     -3.76772506	      4.22654445	      4.36132771	     -8.55114227
      1.26000000	     -7.14268449	     -6.18802105	      3.54305188	     -1.01568332	      0.96926859	     -0.01491516	      9.37234637	      3.55495383	     -5.87729813	    -18.43837406	     12.88111813	      3.26001024	      6.10901440	     -4.20085138	      8.96720283	     -9.79196281	     13.14795508	     -3.95775656	      4.14932503	      4.13671087	     -8.54118059
      1.27000000	     -7.02372654	     -5.96883889	      3.73399495	     -1.01425165	      0.96892647	     -0.01643682	      9.75035663	      3.18342414	     -5.94908855	    -19.51650407	     13.16162412	      3.28494825	      5.90381932	     -3.87174363	      9.15887508	     -9.82443284	     13.25972412	     -4.04269691	      3.96645696	      3.88593419	     -8.55744249
      1.28000000	     -6.99193339	     -5.72553412	      3.91503023	     -1.01284021	      0.96844045	     -0.01796199	     10.32607229	      2.77015333	     -6.00741312	    -20.77976905	     13.39744982	      3.42237457	      5.77762799	     -3.51014423	      9.39260149	     -9.84014548	     13.31316343	     -4.23882650	      3.87517335	      3.60468767	     -8.55110655
      1.29000000	     -6.84861040	     -5.45859595	      4.11470649	     -1.01127706	      0.96803341	     -0.01947157	     10.83060959	      2.34279303	     -6.05679143	    -22.14548479	     13.64131537	      3.41904294	      5.52093464	     -3.13766908	      9.58166735	     -9.85631463	     13.43996960	     -4.33294438	      3.65931584	      3.30104703	     -8.58382927
      1.30000000	     -6.81576496	     -5.18244071	      4.28876089	     -1.00977572	      0.96746253	     -0.02093119	     11.56436100	      1.89506569	     -6.06896643	    -23.69949534	     13.81596921	      3.49340469	      5.37742824	     -2.75026419	      9.78600669	     -9.86943367	     13.50831565	     -4.55874916	      3.55606834	      2.98092705	     -8.57950962
      1.31000000	     -6.71763531	     -4.89056183	      4.45308667	     -1.00814163	      0.96695451	     -0.02233192	     12.28399545	      1.44263464	     -6.05862643	    -25.36161995	     13.94032951	      3.46591231	      5.12174326	     -2.36479865	      9.94941148	     -9.82826892	     13.58953081	     -4.69710425	      3.37970871	      2.64801388	     -8.58669091
      1.32000000	     -6.55820029	     -4.59024060	      4.61513439	     -1.00641712	      0.96651499	     -0.02369523	     12.99321766	      0.99157489	     -6.03073081	    -27.12348060	     14.01321479	      3.39167313	      4.78020402	     -1.98365735	     10.08696707	     -9.76632063	     13.70434310	     -4.77104239	      3.12988384	      2.31230109	     -8.60445061
      1.33000000	     -6.51623787	     -4.31785186	      4.73103306	     -1.00472868	      0.96593732	     -0.02491518	     13.92222903	      0.57750555	     -5.94807225	    -29.02727742	     13.99991292	      3.27949670	      4.55743298	     -1.63529622	     10.18975523	     -9.69398624	     13.76728765	     -4.93214742	      3.00659700	      1.99572727	     -8.58225120
      1.34000000	     -6.40635838	     -4.06239562	      4.84630903	     -1.00292288	      0.96546856	     -0.02608347	     14.81201810	      0.19838166	     -5.85745167	    -30.97632141	     13.92899521	      3.12033012	      4.23263005	     -1.32143629	     10.27418364	     -9.57940846	     13.85030574	     -5.03740451	      2.80753104	      1.70626692	     -8.57624456
      1.35000000	     -6.26545227	     -3.82612917	      4.95540073	     -1.00100012	      0.96507755	     -0.02717193	     15.70256533	     -0.14645826	     -5.77266176	    -32.95931451	     13.82804573	      2.94506995	      3.84109875	     -1.04450344	     10.33220626	     -9.41349437	     13.91499476	     -5.09324152	      2.57690597	      1.44074319	     -8.58589490
      1.36000000	     -6.15235312	     -3.63545017	      5.05312613	     -0.99903114	      0.96469689	     -0.02815830	     16.65533292	     -0.42193965	     -5.66669067	    -34.94212881	     13.67895657	      2.71256999	      3.46962431	     -0.82431165	     10.38094648	     -9.23021270	     13.98457259	     -5.15419835	      2.37739824	      1.22168270	     -8.60000647
      1.37000000	     -6.03991075	     -3.49363566	      5.15676239	     -0.99697637	      0.96436852	     -0.02905413	     17.61765921	     -0.62852254	     -5.58098396	    -36.86952162	     13.52417421	      2.44377208	      3.08587392	     -0.66691457	     10.43558678	     -9.02266308	     14.04682359	     -5.20468252	      2.18301575	      1.05401399	     -8.63866831
